<?xml version="1.0" encoding="UTF-8"?><svg id="Layer_2" xmlns="http://www.w3.org/2000/svg" xmlns:xlink="http://www.w3.org/1999/xlink" viewBox="0 0 803.03 820.77"><defs><style>.cls-1{fill:url(#linear-gradient);stroke-width:0px;}</style><linearGradient id="linear-gradient" x1="102.64" y1="129.78" x2="804.11" y2="788.12" gradientUnits="userSpaceOnUse"><stop offset="0" stop-color="#1559bc"/><stop offset="1" stop-color="#4dddff"/></linearGradient></defs><g id="Layer_1-2"><path class="cls-1" d="M.16,647.95C0,541.3-.17,431.02.35,322.55,1.1,181.25,105.49,61.59,248.55,38.01c14.89-2.44,30.13-3.68,45.33-3.68,121.8,0,234.85,78.89,274.91,191.85,2.11,6.17,2.92,18.57-1.85,26.13l-.82,1.31-1.07,1.13c-26.32,27.77-56.79,58.44-86.26,88.09l-34.65,34.94-.86-37.42c-.02-5.27-.1-10.29-.3-15.03-3.02-83.39-67.5-146.23-149.96-146.23l-2.16.02c-81.77,1.02-146.21,66.74-146.62,149.61-.54,94.47-.51,197.7.11,324.9.11,16.59-4.43,27.91-15.68,39.03-29.06,28.61-63.8,62.95-101.34,100.88L.36,820.77l-.2-172.82ZM505.46,787.63c-119.5,0-233.89-81.41-271.98-193.57-2.22-6.45-1.91-17.64,2.51-24.37l.8-1.21,1-1.04c27.27-28.44,55.34-56.65,85.04-86.52l34.92-35.18,1.31,36.43c.5,13.93.97,27.1,3.4,39.51,13.95,71.53,74.55,121.47,147.37,121.47,5.13,0,10.3-.25,15.39-.75,75.44-7.38,132.86-71.27,133.55-148.61.9-115.8.45-230.16-.1-326.76,0-15.66,4.42-26.34,15.26-36.95,28.86-28.4,58.57-58.58,87.31-87.76L802.9,0l.07,197.81c.06,96.77.12,193.4-.08,290.04-.33,161.95-117.7,287.75-279.11,299.13-6.12.44-12.22.65-18.32.65Z"/></g></svg>