<?xml version="1.0" encoding="UTF-8"?><svg id="Layer_2" xmlns="http://www.w3.org/2000/svg" xmlns:xlink="http://www.w3.org/1999/xlink" viewBox="0 0 884.51 589.75"><defs><style>.cls-1{fill:url(#linear-gradient);}.cls-1,.cls-2{stroke-width:0px;}.cls-2{fill:#03033c;}</style><linearGradient id="linear-gradient" x1="328.07" y1="49.18" x2="593.91" y2="298.68" gradientUnits="userSpaceOnUse"><stop offset="0" stop-color="#1559bc"/><stop offset="1" stop-color="#4dddff"/></linearGradient></defs><g id="Layer_1-2"><path class="cls-1" d="M289.23,245.55c-.06-40.42-.12-82.21.07-123.32.28-53.55,39.85-98.9,94.06-107.83,5.64-.93,11.42-1.39,17.18-1.39,46.16,0,89,29.9,104.18,72.71.8,2.34,1.11,7.04-.7,9.9l-.31.5-.41.43c-9.97,10.52-21.52,22.15-32.69,33.38l-13.13,13.24-.33-14.18c0-2-.04-3.9-.11-5.7-1.15-31.6-25.58-55.42-56.83-55.42h-.82c-30.99.39-55.41,25.3-55.56,56.7-.21,35.8-.19,74.92.04,123.13.04,6.29-1.68,10.58-5.94,14.79-11.01,10.84-24.18,23.86-38.4,38.23l-10.23,10.32-.07-65.49ZM480.73,298.49c-45.29,0-88.64-30.85-103.07-73.36-.84-2.44-.72-6.69.95-9.23l.3-.46.38-.4c10.34-10.78,20.97-21.47,32.23-32.79l13.23-13.33.49,13.8c.19,5.28.37,10.27,1.29,14.97,5.29,27.11,28.25,46.03,55.85,46.03,1.94,0,3.9-.1,5.83-.28,28.59-2.8,50.35-27.01,50.61-56.32.34-43.89.17-87.23-.04-123.83,0-5.93,1.68-9.98,5.78-14,10.94-10.76,22.2-22.2,33.09-33.26l15.79-16.04.03,74.97c.02,36.67.05,73.29-.03,109.92-.12,61.37-44.61,109.05-105.77,113.36-2.32.17-4.63.25-6.94.25Z"/><path class="cls-2" d="M97.8,463.9c0,27.56-20.28,44.79-52.67,44.79h-19.77v41.73H0v-130.04h45.14c32.39,0,52.67,16.72,52.67,43.53ZM71.89,464.29c0-12.92-10.5-21.18-26.75-21.18h-19.77v43.68h19.77c16.25,0,26.75-8.78,26.75-22.5Z"/><path class="cls-2" d="M109.54,503.97c0-28.41,21.02-48.67,50.57-48.67s50.57,20.26,50.57,48.67-21.02,48.67-50.57,48.67-50.57-20.26-50.57-48.67ZM185.87,503.97c0-14.95-10.9-25.9-25.76-25.9s-25.76,10.95-25.76,25.9,10.9,25.9,25.76,25.9,25.76-10.95,25.76-25.9Z"/><path class="cls-2" d="M357.92,457.53l-30.55,92.89h-19.73l-19.08-58.52-19.05,58.52h-19.73l-30.55-92.89h24.76l16.74,59.48,19.16-59.48h17.38l19.15,59.48,16.75-59.48h24.75Z"/><path class="cls-2" d="M466.51,512.34h-76.23c3.23,12.55,13.79,20.65,27.84,20.65,11.41,0,19.7-4.58,24.95-12.95h22.67c-6.33,19.74-24.13,32.61-47.76,32.61-30.51,0-51.53-20.26-51.53-48.67s21.02-48.67,51.53-48.67,49.05,20.26,49.05,48.67c0,2.98-.23,5.75-.53,8.37ZM390.23,495.86h53.85c-2.84-12.63-12.47-20.91-26.25-20.91s-24.4,8.21-27.61,20.91Z"/><path class="cls-2" d="M545.09,456.69v21.8c-2.75-.96-5.46-1.53-8.42-1.53-13.93,0-27.33,12.77-27.33,33.91v39.53h-24.12v-92.89h19.87v15.98c6.41-11.46,16.47-18.19,29.96-18.19,3.31,0,6.81.52,10.04,1.38Z"/><path class="cls-2" d="M661.23,463.9c0,27.56-20.28,44.79-52.67,44.79h-19.77v41.73h-25.37v-130.04h45.14c32.39,0,52.67,16.72,52.67,43.53ZM635.32,464.29c0-12.92-10.5-21.18-26.75-21.18h-19.77v43.68h19.77c16.25,0,26.75-8.78,26.75-22.5Z"/><path class="cls-2" d="M773.4,457.53v92.89h-21.21v-11.88c-7.23,8.81-17.98,14.11-31.95,14.11-27.24,0-47.26-20.26-47.26-48.67s20.02-48.67,47.26-48.67c13.98,0,24.73,5.3,31.95,14.11v-11.88h21.21ZM749.3,503.97c0-14.95-10.9-25.9-25.76-25.9s-25.76,10.95-25.76,25.9,10.9,25.9,25.76,25.9,25.76-10.95,25.76-25.9Z"/><path class="cls-2" d="M884.5,537.83h0v4.96c0,30.69-16,46.96-44.86,46.96s-41.01-13.49-44.14-33.85h23.54c2.09,9.72,9.41,14.78,20.26,14.78,14.63,0,21.75-7.86,21.8-24.2v-4.78c-7.07,6.75-16.4,9.93-27.08,9.93-25.45,0-39.32-17.08-39.32-45.78v-48.31h24.12v47.45c0,16.22,8.36,23.86,19.77,23.86,13.42,0,21.78-9.11,21.78-27.88v-43.44h24.12v80.3Z"/></g></svg>