<?xml version="1.0" encoding="UTF-8"?><svg id="Layer_2" xmlns="http://www.w3.org/2000/svg" viewBox="0 0 871.49 166.75"><defs><style>.cls-1{fill:#fff;stroke-width:0px;}</style></defs><g id="Layer_1-2"><path class="cls-1" d="M.03,131.64C0,109.97-.03,87.57.07,65.53.22,36.82,21.43,12.51,50.5,7.72c3.02-.5,6.12-.75,9.21-.75,24.75,0,47.71,16.03,55.85,38.98.43,1.25.59,3.77-.38,5.31l-.17.27-.22.23c-5.35,5.64-11.54,11.87-17.52,17.9l-7.04,7.1-.18-7.6c0-1.07-.02-2.09-.06-3.05-.61-16.94-13.71-29.71-30.47-29.71h-.44c-16.61.21-29.7,13.56-29.79,30.4-.11,19.19-.1,40.17.02,66.01.02,3.37-.9,5.67-3.18,7.93-5.9,5.81-12.96,12.79-20.59,20.49L.07,166.75l-.04-35.11ZM102.69,160.02c-24.28,0-47.52-16.54-55.26-39.33-.45-1.31-.39-3.58.51-4.95l.16-.25.2-.21c5.54-5.78,11.24-11.51,17.28-17.58l7.09-7.15.27,7.4c.1,2.83.2,5.51.69,8.03,2.83,14.53,15.15,24.68,29.94,24.68,1.04,0,2.09-.05,3.13-.15,15.33-1.5,26.99-14.48,27.13-30.19.18-23.53.09-46.76-.02-66.39,0-3.18.9-5.35,3.1-7.51,5.86-5.77,11.9-11.9,17.74-17.83l8.46-8.6v40.19c.03,19.66.04,39.29,0,58.93-.07,32.9-23.91,58.46-56.7,60.77-1.24.09-2.48.13-3.72.13Z"/><path class="cls-1" d="M308.2,62.86c0,19.73-14.52,32.07-37.71,32.07h-14.16v29.88h-18.16V31.7h32.32c23.19,0,37.71,11.97,37.71,31.16ZM289.64,63.14c0-9.25-7.52-15.16-19.15-15.16h-14.16v31.28h14.16c11.63,0,19.15-6.28,19.15-16.11Z"/><path class="cls-1" d="M316.61,91.55c0-20.34,15.05-34.85,36.2-34.85s36.21,14.51,36.21,34.85-15.05,34.85-36.21,34.85-36.2-14.51-36.2-34.85ZM371.25,91.55c0-10.7-7.8-18.54-18.44-18.54s-18.44,7.84-18.44,18.54,7.8,18.54,18.44,18.54,18.44-7.84,18.44-18.54Z"/><path class="cls-1" d="M494.44,58.3l-21.88,66.51h-14.13l-13.66-41.9-13.64,41.9h-14.13l-21.88-66.51h17.72l11.99,42.59,13.72-42.59h12.45l13.71,42.59,11.99-42.59h17.72Z"/><path class="cls-1" d="M572.19,97.55h-54.58c2.31,8.99,9.87,14.78,19.93,14.78,8.17,0,14.1-3.28,17.87-9.27h16.23c-4.53,14.14-17.28,23.34-34.19,23.34-21.84,0-36.89-14.51-36.89-34.85s15.05-34.85,36.89-34.85,35.12,14.51,35.12,34.85c0,2.13-.17,4.12-.38,6ZM517.58,85.75h38.56c-2.03-9.04-8.93-14.97-18.79-14.97s-17.47,5.88-19.77,14.97Z"/><path class="cls-1" d="M628.46,57.7v15.61c-1.97-.69-3.91-1.09-6.03-1.09-9.97,0-19.57,9.14-19.57,24.28v28.3h-17.27V58.3h14.22v11.44c4.59-8.2,11.79-13.03,21.45-13.03,2.37,0,4.88.37,7.19.99Z"/><path class="cls-1" d="M711.62,62.86c0,19.73-14.52,32.07-37.71,32.07h-14.16v29.88h-18.16V31.7h32.32c23.19,0,37.71,11.97,37.71,31.16ZM693.06,63.14c0-9.25-7.52-15.16-19.15-15.16h-14.16v31.28h14.16c11.63,0,19.15-6.28,19.15-16.11Z"/><path class="cls-1" d="M791.93,58.3v66.51h-15.18v-8.51c-5.18,6.3-12.87,10.1-22.88,10.1-19.5,0-33.84-14.51-33.84-34.85s14.34-34.85,33.84-34.85c10.01,0,17.7,3.8,22.88,10.1v-8.51h15.18ZM774.68,91.55c0-10.7-7.8-18.54-18.44-18.54s-18.44,7.84-18.44,18.54,7.8,18.54,18.44,18.54,18.44-7.84,18.44-18.54Z"/><path class="cls-1" d="M871.49,115.79h0v3.55c0,21.97-11.46,33.62-32.12,33.62s-29.36-9.66-31.6-24.24h16.86c1.5,6.96,6.74,10.58,14.51,10.58,10.47,0,15.58-5.63,15.61-17.33v-3.42c-5.06,4.83-11.74,7.11-19.39,7.11-18.22,0-28.15-12.23-28.15-32.78v-34.58h17.27v33.97c0,11.61,5.98,17.08,14.16,17.08,9.61,0,15.59-6.52,15.59-19.96v-31.1h17.27v57.49Z"/></g></svg>